<svg xmlns="http://www.w3.org/2000/svg" viewBox="0 0 400 120" fill="none">
  <defs>
    <style>
      @import url('https://fonts.googleapis.com/css2?family=Archivo:wght@500;700&display=swap');
      text { font-family: Archivo, -apple-system, BlinkMacSystemFont, "Segoe UI", sans-serif; }
    </style>
  </defs>
  <g fill="none" stroke-width="5" stroke-linecap="round" transform="translate(18,28)">
    <path d="M0,11 C11,1 22,1 32,11 C42,21 53,21 63,11 C71,3 79,3 84,8" stroke="#0F3A56"></path>
    <path d="M0,11 C11,1 22,1 32,11 C42,21 53,21 63,11 C71,3 79,3 84,8" stroke="#1E6E8C" transform="translate(0,16)"></path>
    <path d="M0,11 C11,1 22,1 32,11 C42,21 53,21 63,11 C71,3 79,3 84,8" stroke="#E8654A" transform="translate(0,32)"></path>
    <circle cx="84" cy="8" r="2.6" fill="#0F3A56" stroke="none"></circle>
    <circle cx="84" cy="24" r="2.6" fill="#1E6E8C" stroke="none"></circle>
    <circle cx="84" cy="40" r="2.6" fill="#E8654A" stroke="none"></circle>
  </g>
  <text x="132" y="56" font-weight="700" font-size="48" letter-spacing="0.2" fill="#0F3A56">Génome <tspan font-weight="500">Réunion</tspan></text>
  <text x="133" y="76" font-weight="600" font-size="14" letter-spacing="3.4" fill="#1E6E8C">RÉFÉRENTIEL GÉNOMIQUE · LA RÉUNION</text>
</svg>
