<svg xmlns="http://www.w3.org/2000/svg" viewBox="0 0 100 64" fill="none">
  <g fill="none" stroke-width="5" stroke-linecap="round" transform="translate(7,5)">
    <path d="M0,11 C11,1 22,1 32,11 C42,21 53,21 63,11 C71,3 79,3 84,8" stroke="#0F3A56"></path>
    <path d="M0,11 C11,1 22,1 32,11 C42,21 53,21 63,11 C71,3 79,3 84,8" stroke="#1E6E8C" transform="translate(0,16)"></path>
    <path d="M0,11 C11,1 22,1 32,11 C42,21 53,21 63,11 C71,3 79,3 84,8" stroke="#E8654A" transform="translate(0,32)"></path>
    <circle cx="84" cy="8" r="2.6" fill="#0F3A56" stroke="none"></circle>
    <circle cx="84" cy="24" r="2.6" fill="#1E6E8C" stroke="none"></circle>
    <circle cx="84" cy="40" r="2.6" fill="#E8654A" stroke="none"></circle>
  </g>
</svg>
